# Blender v2.77 (sub 0) OBJ File: 'LowPoly_Level_Kit_Rocks.blend'
# www.blender.org
g Stonehenge_06
v 1.051680 0.000000 0.662448
v -1.051682 0.000000 0.662449
v 1.051680 0.000000 -0.662448
v -1.051682 0.000000 -0.662448
v -0.236828 5.000000 0.598400
v -0.950001 5.000000 -0.134588
v -0.950001 4.825635 -0.598400
v 0.949999 4.900873 -0.598400
v 0.471950 5.000000 -0.284366
v 0.949999 4.922096 -0.541946
v -0.558160 5.000000 0.598400
v -0.950001 4.803579 0.598400
v -0.950001 5.000000 0.095704
v 0.949999 4.178456 0.598400
v 0.672322 4.738876 0.598400
v 0.949999 4.780791 0.070804
vt 0.2193 0.7818
vt 0.2193 0.7876
vt 0.2140 0.7815
vt 0.1840 0.8300
vt 0.1840 0.8493
vt 0.1808 0.8349
vt 0.1770 0.8493
vt 0.1720 0.8493
vt 0.1719 0.8453
vt 0.1719 0.8421
vt 0.1720 0.8328
vt 0.1773 0.8300
vt 0.1669 0.7800
vt 0.1719 0.8310
vt 0.1637 0.7800
vt 0.1932 0.8300
vt 0.1729 0.7808
vt 0.1922 0.7800
vt 0.1517 0.7884
vt 0.1507 0.8310
vt 0.2012 0.7800
vt 0.2059 0.7818
vt 0.2066 0.8310
vt 0.1989 0.7800
vt 0.1793 0.8493
vt 0.1835 0.8300
vt 0.2066 0.8302
vt 0.2200 0.8302
vt 0.2072 0.7802
vt 0.2078 0.7800
vt 0.1938 0.7820
vt 0.1545 0.7827
vt 0.1709 0.7820
vt 0.1719 0.8300
vt 0.1932 0.8310
vn 0.7992 0.3960 0.4521
vn -0.0370 0.9354 -0.3517
vn -0.4231 0.8440 0.3298
vn 0.0000 1.0000 0.0000
vn 0.2695 0.9384 0.2164
vn 0.0000 0.0128 0.9999
vn -0.0005 0.0131 -0.9999
vn 0.0000 0.0153 0.9999
vn -0.9997 0.0212 -0.0080
vn -0.9998 0.0203 0.0000
vn -0.0370 0.9354 -0.3516
vn 0.9998 0.0213 0.0000
vn 0.9998 0.0208 -0.0078
vn 0.9993 0.0248 0.0283
vn -0.9998 0.0192 0.0075
vn 0.0000 -0.0000 1.0000
vn -0.0068 0.0135 0.9999
vn -0.0000 0.0133 -0.9999
vn 0.0080 0.0115 0.9999
vn 0.9998 0.0205 0.0047
vn -0.9998 0.0212 0.0000
s off
f 15/1/1 14/2/1 16/3/1
f 8/4/2 7/5/2 9/6/2
f 13/7/3 12/8/3 11/9/3
f 13/7/4 11/9/4 5/10/4
f 5/10/5 15/11/5 16/12/5
f 11/13/6 2/14/6 5/15/6
f 3/16/7 7/17/7 8/18/7
f 14/19/8 2/14/8 1/20/8
f 6/21/9 7/22/9 4/23/9
f 4/23/10 13/24/10 6/21/10
f 6/25/2 9/6/2 7/5/2
f 10/26/11 8/4/11 9/6/11
f 3/27/12 16/3/12 1/28/12
f 6/25/4 13/7/4 9/6/4
f 16/12/5 10/26/5 9/6/5
f 8/29/13 10/30/13 3/27/13
f 16/3/14 14/2/14 1/28/14
f 4/23/15 12/31/15 13/24/15
f 15/32/16 5/15/16 14/19/16
f 11/13/17 12/33/17 2/14/17
f 5/10/4 9/6/4 13/7/4
f 3/16/18 4/34/18 7/17/18
f 14/19/19 5/15/19 2/14/19
f 3/27/20 10/30/20 16/3/20
f 4/23/21 2/35/21 12/31/21
f 5/10/5 16/12/5 9/6/5
