# Blender v2.77 (sub 0) OBJ File: 'LowPoly_Level_Kit_Rocks.blend'
# www.blender.org
g Stonehenge_03
v 2.028317 5.000000 0.901474
v -2.028317 5.000000 0.901474
v -2.028317 5.041873 1.000000
v 2.028317 5.850000 -0.901474
v 2.250000 5.808126 -0.901474
v 2.028317 5.808126 -1.000000
v -2.028317 5.041873 -1.000000
v -2.028317 5.000000 -0.901474
v -2.250000 5.041873 -0.901474
v 1.820294 5.850000 0.901474
v 1.772848 5.808126 1.000000
v 2.028317 5.850000 0.693704
v 2.250000 5.808126 0.523427
v 2.064682 5.006869 0.901474
v 2.028317 5.016931 0.941311
v 1.974840 5.041873 1.000000
v 2.250000 5.041873 0.699390
v 1.980665 5.638163 1.000000
v 2.250000 5.658651 0.705972
v 2.250000 5.272043 -0.901474
v 2.028317 5.192997 -1.000000
v 1.787459 5.000000 -0.901474
v 1.771370 5.041873 -1.000000
v 2.028317 5.000000 -0.629595
v 2.250000 5.041873 -0.459725
v -2.028317 5.850000 -0.582827
v -2.250000 5.808126 -0.422505
v -2.028317 5.663640 -1.000000
v -2.250000 5.594161 -0.901474
v -1.750273 5.850000 -0.901474
v -1.746093 5.808126 -1.000000
v -1.945545 5.850000 0.901474
v -2.028317 5.511698 1.000000
v -2.250000 5.808126 0.367862
v -1.909255 5.808126 1.000000
v -2.028317 5.850000 0.747919
v -2.109506 5.041873 0.963916
v -2.138519 5.020816 0.901474
v -2.250000 5.041873 0.690907
v -2.154035 5.273683 0.944125
v -2.250000 5.281862 0.760000
v 0.497604 2.045064 -0.737023
v 0.691595 2.045064 -0.584281
v -1.180522 2.045064 -0.584281
v -0.986531 2.045064 -0.737023
v -0.986531 2.045064 0.737023
v -1.180522 2.045064 0.584281
v 0.497604 2.045064 0.737023
v 0.691595 2.045064 0.584281
v 0.779771 0.000000 0.592983
v 0.582891 0.000000 0.748000
v 0.582891 0.000000 -0.748000
v 0.779771 0.000000 -0.592983
v 0.705536 5.000000 -0.592983
v 0.705536 3.522532 -0.592983
v -0.997584 3.522532 -0.748000
v 0.508656 3.522532 0.748000
v -1.194464 3.522532 0.592983
v 0.705536 3.522532 0.592983
v -0.997584 3.522532 0.748000
v -1.194464 3.522532 -0.592983
v 0.508656 3.522532 -0.748000
v -0.997584 4.347003 0.748000
v -0.520863 5.000000 0.748000
v -1.194464 5.000000 0.189028
v -1.194464 4.333204 0.592983
v 0.705536 4.528959 0.592983
v 0.705536 5.000000 -0.284204
v 0.508656 4.659115 0.748000
v 0.194158 5.000000 0.748000
v -1.194464 4.939374 -0.592983
v 0.644554 5.000000 -0.640998
v 0.508656 4.904351 -0.748000
v -0.997584 4.822262 -0.748000
v -1.194464 5.000000 -0.519468
v -0.904716 0.326161 0.746249
v -1.108138 0.477768 0.590950
v -0.599020 0.000000 0.748000
v -1.092648 0.142393 -0.592377
v -0.891594 0.050479 -0.747729
v -0.810545 0.000000 -0.748000
v -0.988417 0.000000 -0.232918
v -1.089690 0.078343 -0.303486
vt 0.9354 0.7639
vt 0.9320 0.7668
vt 0.9310 0.7640
vt 0.9548 0.7635
vt 0.9553 0.7639
vt 0.9547 0.7639
vt 0.9547 0.8118
vt 0.9556 0.8128
vt 0.9548 0.8131
vt 0.9068 0.8119
vt 0.9068 0.8145
vt 0.9055 0.8119
vt 0.9308 0.8119
vt 0.9320 0.8119
vt 0.9321 0.8145
vt 0.9381 0.8161
vt 0.9410 0.8176
vt 0.9351 0.8176
vt 0.8910 0.8214
vt 0.8912 0.8219
vt 0.8831 0.8209
vt 0.9522 0.7613
vt 0.9108 0.7639
vt 0.9228 0.7613
vt 0.9276 0.7639
vt 0.9521 0.8145
vt 0.4526 0.8129
vt 0.4515 0.8120
vt 0.4519 0.8086
vt 0.4305 0.8622
vt 0.4436 0.8662
vt 0.4305 0.8662
vt 0.3946 0.8358
vt 0.3976 0.8156
vt 0.3976 0.8335
vt 0.4558 0.8250
vt 0.4518 0.8247
vt 0.9560 0.7645
vt 0.4495 0.8227
vt 0.9067 0.7613
vt 0.9055 0.7639
vt 0.9308 0.7670
vt 0.4495 0.8651
vt 0.4475 0.8487
vt 0.4495 0.8487
vt 0.3870 0.7888
vt 0.3791 0.8074
vt 0.3786 0.7888
vt 0.8830 0.8244
vt 0.9659 0.7653
vt 0.9560 0.7995
vt 0.9562 0.7628
vt 0.9630 0.7613
vt 0.9640 0.7628
vt 0.4474 0.8313
vt 0.4325 0.8487
vt 0.4326 0.8313
vt 0.4088 0.7784
vt 0.4068 0.7599
vt 0.4095 0.7581
vt 0.9587 0.8050
vt 0.9657 0.8022
vt 0.9657 0.8050
vt 0.3917 0.8133
vt 0.3962 0.8140
vt 0.9380 0.8148
vt 0.9308 0.8174
vt 0.9313 0.8145
vt 0.9068 0.7672
vt 0.9055 0.7672
vt 0.9308 0.8088
vt 0.9296 0.7649
vt 0.9308 0.7653
vt 0.9560 0.8118
vt 0.9410 0.8166
vt 0.4275 0.7781
vt 0.4060 0.7717
vt 0.3906 0.7560
vt 0.4062 0.7553
vt 0.4280 0.7956
vt 0.4092 0.8056
vt 0.4090 0.7959
vt 0.8907 0.8208
vt 0.9308 0.8113
vt 0.9296 0.8094
vt 0.9270 0.8145
vt 0.9248 0.8145
vt 0.9270 0.8119
vt 0.3872 0.7714
vt 0.3788 0.7618
vt 0.3874 0.7546
vt 0.9376 0.7613
vt 0.9578 0.8022
vt 0.9323 0.7614
vt 0.8884 0.8433
vt 0.8816 0.8435
vt 0.8912 0.8380
vt 0.8812 0.8266
vt 0.8908 0.8243
vt 0.4063 0.8134
vt 0.4153 0.8132
vt 0.9128 0.7613
vt 0.9338 0.8649
vt 0.9316 0.8625
vt 0.9413 0.8648
vt 0.9314 0.8191
vt 0.9413 0.8162
vt 0.9308 0.8186
vt 0.9629 0.8162
vt 0.9562 0.8136
vt 0.9659 0.8157
vt 0.9561 0.8083
vt 0.4547 0.8071
vt 0.4558 0.8072
vt 0.4282 0.7539
vt 0.4298 0.7781
vt 0.4062 0.7784
vt 0.4303 0.7955
vt 0.4475 0.8071
vt 0.4325 0.8071
vt 0.3903 0.7714
vt 0.4056 0.7891
vt 0.3902 0.7889
vt 0.3787 0.7714
vt 0.4065 0.8055
vt 0.4064 0.7959
vt 0.4325 0.8606
vt 0.4495 0.8071
vt 0.4493 0.8313
vt 0.4282 0.8090
vt 0.4243 0.8131
vt 0.4475 0.8662
vt 0.3956 0.8358
vt 0.4481 0.8662
vt 0.3956 0.8133
vt 0.3857 0.8358
vt 0.3786 0.8278
vt 0.3786 0.8193
vt 0.3818 0.7539
vt 0.3869 0.7539
vt 0.4305 0.8074
vt 0.3909 0.8124
vt 0.4133 0.7542
vt 0.4062 0.8133
vt 0.3917 0.8131
vt 0.3877 0.8113
vt 0.3856 0.8121
vt 0.9562 0.7613
vt 0.9410 0.8147
vt 0.4305 0.7539
vn 0.4625 -0.7863 -0.4097
vn 0.1713 -0.9067 0.3854
vn -0.1713 -0.9067 0.3854
vn 0.1713 0.9067 -0.3854
vn -0.1713 -0.9067 -0.3854
vn -0.4061 0.0000 0.9138
vn 0.7376 -0.0072 0.6752
vn 0.1856 -0.9826 0.0000
vn -0.1856 0.9826 0.0000
vn -0.1856 -0.9826 0.0000
vn -0.5205 -0.8347 -0.1797
vn 0.6906 0.6372 0.3421
vn -0.0420 0.7708 -0.6357
vn -0.7015 -0.6560 0.2785
vn 0.0000 -1.0000 0.0000
vn 0.0000 -0.9203 0.3911
vn -0.4235 0.8271 -0.3695
vn -0.0000 -0.9203 -0.3911
vn 0.6186 0.0000 -0.7857
vn -0.9989 -0.0461 0.0000
vn -0.0000 0.0000 -1.0000
vn 0.4061 0.0000 -0.9138
vn 1.0000 -0.0094 -0.0000
vn -0.6184 -0.0252 0.7854
vn -0.4061 0.0000 -0.9138
vn 0.0000 1.0000 0.0000
vn -0.8299 0.3333 0.4474
vn 0.0000 0.9203 0.3911
vn 0.0000 0.0054 1.0000
vn 0.0000 0.0000 1.0000
vn 0.5347 0.6538 0.5354
vn -1.0000 0.0000 0.0000
vn 1.0000 0.0000 0.0000
vn -0.5788 0.4225 0.6975
vn -0.8816 -0.1306 0.4537
vn -0.0000 0.9203 -0.3911
vn 0.6183 0.0300 0.7853
vn -0.6186 -0.0105 0.7856
vn 0.6186 -0.0105 0.7856
vn 0.9991 0.0431 0.0000
vn 0.0000 -0.0074 -1.0000
vn -1.0000 -0.0094 0.0000
vn 0.0000 -0.0074 1.0000
vn -0.6186 0.0000 0.7857
vn 0.6183 0.0300 -0.7853
vn 0.6186 -0.0105 -0.7856
vn 0.1856 0.9826 0.0000
vn 0.6186 0.0000 0.7857
vn 0.0000 0.0054 -1.0000
vn -0.6186 0.0000 -0.7857
vn -0.6184 -0.0252 -0.7854
vn -0.6186 -0.0105 -0.7856
s off
f 24/1/1 22/2/1 21/3/1
f 14/4/2 15/5/2 1/6/2
f 2/7/3 37/8/3 38/9/3
f 4/10/4 5/11/4 6/12/4
f 7/13/5 8/14/5 9/15/5
f 40/16/6 3/17/6 33/18/6
f 15/19/7 14/20/7 18/21/7
f 24/1/8 17/22/8 1/6/8
f 26/23/9 34/24/9 36/25/9
f 2/7/10 39/26/10 8/14/10
f 82/27/11 83/28/11 79/29/11
f 69/30/12 68/31/12 70/32/12
f 75/33/13 73/34/13 74/35/13
f 82/27/14 78/36/14 76/37/14
f 22/2/15 2/7/15 8/14/15
f 16/38/16 2/7/16 1/6/16
f 82/27/14 77/39/14 83/28/14
f 29/40/17 26/23/17 28/41/17
f 23/42/18 8/14/18 7/13/18
f 73/43/19 55/44/19 62/45/19
f 44/46/20 77/47/20 47/48/20
f 14/20/7 19/49/7 18/21/7
f 23/50/21 31/51/21 6/52/21
f 6/52/22 20/53/22 21/54/22
f 43/55/23 59/56/23 49/57/23
f 46/58/24 77/59/24 76/60/24
f 29/61/25 7/62/25 9/63/25
f 75/33/26 68/64/26 72/65/26
f 41/66/27 36/67/27 34/68/27
f 22/2/1 23/42/1 21/3/1
f 26/23/17 30/69/17 28/41/17
f 31/70/17 28/41/17 30/69/17
f 11/71/28 32/72/28 35/73/28
f 2/7/3 3/74/3 37/8/3
f 40/16/6 37/75/6 3/17/6
f 76/60/29 48/76/29 46/58/29
f 62/77/21 74/78/21 73/79/21
f 57/80/30 63/81/30 60/82/30
f 16/83/7 15/19/7 18/21/7
f 11/71/31 18/84/31 10/85/31
f 19/86/31 13/87/31 12/88/31
f 61/89/32 66/90/32 71/91/32
f 1/6/16 15/5/16 16/38/16
f 14/4/8 1/6/8 17/22/8
f 24/1/8 25/92/8 17/22/8
f 24/1/15 1/6/15 22/2/15
f 28/93/21 31/51/21 7/62/21
f 6/52/21 21/54/21 23/50/21
f 24/1/1 20/94/1 25/92/1
f 20/95/33 5/96/33 25/97/33
f 13/98/33 19/49/33 17/99/33
f 65/100/34 63/81/34 64/101/34
f 26/23/9 27/102/9 34/24/9
f 18/103/30 11/104/30 16/105/30
f 35/106/30 33/18/30 3/17/30
f 25/97/33 13/98/33 17/99/33
f 12/88/26 4/10/26 10/85/26
f 30/69/26 26/23/26 36/25/26
f 36/25/26 32/72/26 30/69/26
f 41/66/35 38/107/35 40/16/35
f 32/108/27 36/67/27 33/18/27
f 40/16/27 33/18/27 41/66/27
f 35/106/27 32/108/27 33/18/27
f 41/109/32 34/110/32 39/111/32
f 27/112/32 29/61/32 9/63/32
f 9/15/10 8/14/10 39/26/10
f 2/7/10 38/9/10 39/26/10
f 38/107/35 37/75/35 40/16/35
f 31/70/36 4/10/36 6/12/36
f 39/111/32 27/112/32 9/63/32
f 79/29/11 80/113/11 82/27/11
f 81/114/11 82/27/11 80/113/11
f 51/115/37 49/116/37 48/76/37
f 60/82/38 47/117/38 46/58/38
f 57/80/39 49/116/39 59/118/39
f 53/119/40 49/57/40 50/120/40
f 56/121/41 42/122/41 45/123/41
f 58/124/42 44/46/42 47/48/42
f 48/76/43 60/82/43 46/58/43
f 60/82/44 66/125/44 58/126/44
f 69/30/12 67/127/12 68/31/12
f 52/128/45 43/55/45 53/119/45
f 62/45/46 43/55/46 42/129/46
f 69/130/30 70/131/30 64/101/30
f 64/101/30 63/81/30 69/130/30
f 30/69/26 10/85/26 4/10/26
f 67/127/33 55/44/33 68/31/33
f 55/44/33 54/132/33 68/31/33
f 74/35/13 71/133/13 75/33/13
f 75/33/13 72/65/13 73/34/13
f 72/134/19 54/132/19 73/43/19
f 3/17/30 11/104/30 35/106/30
f 68/64/26 54/135/26 72/65/26
f 13/87/47 4/10/47 12/88/47
f 65/136/26 64/137/26 75/33/26
f 70/138/26 68/64/26 64/137/26
f 66/90/32 65/139/32 71/91/32
f 75/140/32 71/91/32 65/139/32
f 57/80/48 67/141/48 69/130/48
f 42/122/49 80/142/49 45/123/49
f 51/115/29 76/60/29 78/143/29
f 18/84/31 12/88/31 10/85/31
f 42/122/49 52/144/49 81/145/49
f 61/89/50 74/78/50 56/121/50
f 79/146/51 45/123/51 80/142/51
f 44/46/20 79/146/20 83/147/20
f 44/46/52 56/121/52 45/123/52
f 22/2/15 1/6/15 2/7/15
f 16/38/16 3/74/16 2/7/16
f 82/27/14 76/37/14 77/39/14
f 29/40/17 27/102/17 26/23/17
f 23/42/18 22/2/18 8/14/18
f 73/43/19 54/132/19 55/44/19
f 44/46/20 83/147/20 77/47/20
f 14/20/7 17/99/7 19/49/7
f 23/50/21 7/62/21 31/51/21
f 6/52/22 5/148/22 20/53/22
f 43/55/23 55/44/23 59/56/23
f 46/58/24 47/117/24 77/59/24
f 29/61/25 28/93/25 7/62/25
f 75/33/26 64/137/26 68/64/26
f 41/66/27 33/18/27 36/67/27
f 11/71/28 10/85/28 32/72/28
f 76/60/29 51/115/29 48/76/29
f 62/77/21 56/121/21 74/78/21
f 57/80/30 69/130/30 63/81/30
f 61/89/32 58/124/32 66/90/32
f 24/1/1 21/3/1 20/94/1
f 65/100/34 66/125/34 63/81/34
f 25/97/33 5/96/33 13/98/33
f 41/66/35 39/149/35 38/107/35
f 31/70/36 30/69/36 4/10/36
f 39/111/32 34/110/32 27/112/32
f 51/115/37 50/150/37 49/116/37
f 60/82/38 58/126/38 47/117/38
f 57/80/39 48/76/39 49/116/39
f 53/119/40 43/55/40 49/57/40
f 56/121/41 62/77/41 42/122/41
f 58/124/42 61/89/42 44/46/42
f 48/76/43 57/80/43 60/82/43
f 60/82/44 63/81/44 66/125/44
f 52/128/45 42/129/45 43/55/45
f 62/45/46 55/44/46 43/55/46
f 30/69/26 32/72/26 10/85/26
f 67/127/33 59/56/33 55/44/33
f 3/17/30 16/105/30 11/104/30
f 13/87/47 5/11/47 4/10/47
f 57/80/48 59/118/48 67/141/48
f 42/122/49 81/145/49 80/142/49
f 18/84/31 19/86/31 12/88/31
f 61/89/50 71/91/50 74/78/50
f 79/146/51 44/46/51 45/123/51
f 44/46/52 61/89/52 56/121/52
